<?xml version="1.0" standalone="no"?>
<!DOCTYPE svg PUBLIC "-//W3C//DTD SVG 20010904//EN"
 "http://www.w3.org/TR/2001/REC-SVG-20010904/DTD/svg10.dtd">
<svg version="1.0" xmlns="http://www.w3.org/2000/svg"
 width="225.000000pt" height="225.000000pt" viewBox="0 0 225.000000 225.000000"
 preserveAspectRatio="xMidYMid meet">
<metadata>
Created by potrace 1.14, written by Peter Selinger 2001-2017
</metadata>
<g transform="translate(0.000000,225.000000) scale(0.100000,-0.100000)"
fill="#000000" stroke="none">
<path d="M1038 2064 c-2 -1 -23 -5 -48 -9 -24 -4 -47 -8 -50 -10 -3 -2 -22 -6
-43 -9 -21 -3 -47 -11 -58 -16 -10 -6 -19 -8 -19 -5 0 3 -11 -2 -24 -11 -14
-8 -26 -14 -28 -13 -7 6 -150 -75 -155 -88 -3 -7 -9 -11 -13 -8 -10 6 -191
-165 -185 -176 3 -4 -1 -9 -8 -12 -20 -8 -123 -189 -131 -231 -2 -6 -10 -36
-20 -67 -24 -80 -30 -138 -29 -274 0 -175 43 -317 140 -466 48 -74 155 -185
223 -232 25 -17 47 -33 50 -36 8 -9 129 -67 177 -85 91 -34 178 -47 303 -47
69 0 134 2 146 5 54 11 161 40 174 46 64 29 156 75 160 80 3 3 24 18 48 33 98
63 223 210 284 332 25 50 73 194 82 250 12 66 7 251 -9 330 -5 24 -17 71 -22
85 -3 8 -8 24 -10 34 -2 11 -8 25 -14 33 -6 7 -9 13 -6 13 13 0 -77 157 -121
212 -40 51 -154 158 -167 158 -8 0 -15 4 -15 10 0 9 -79 65 -90 62 -3 0 -14 7
-24 16 -15 13 -18 14 -12 2 7 -13 6 -13 -6 0 -13 15 -72 41 -95 43 -7 0 -13 4
-13 9 0 5 -4 7 -9 3 -5 -3 -12 -1 -16 5 -4 6 -10 8 -14 5 -5 -2 -23 0 -42 5
-19 6 -47 13 -64 16 -30 6 -223 13 -227 8z"/>
</g>
</svg>
